<svg xmlns="http://www.w3.org/2000/svg" fill="none" viewBox="0 0 449 368" id="Aeroplane">
  <path fill="#1c252e" d="M376.31 152C372.91 152 361.51 152.1 358.31 152.3L293.41 154C292.71 154 292.01 153.7 291.71 153.1L194.41 7.4C191.51 2.8 186.31 0 180.91 0H157.21C151.61 0 149.71 5.6 151.71 10.8L201.81 153.6C202.31 154.9 201.41 156.3 200.01 156.3L77.6096 158.1C75.0096 158.2 72.6096 157 71.0096 155L34.0096 110C31.0096 106.1 26.3096 103.9 21.4096 103.9H4.60956C1.80956 103.9 -0.0904383 106.6 0.809562 109.2L20.7096 177.9C22.2096 181.7 22.2096 186 20.7096 189.8L0.809562 258.5C-0.0904383 261.1 1.80956 263.8 4.60956 263.8H21.3096C26.2096 263.8 30.9096 261.5 33.9096 257.7L71.6096 212C73.2096 210 75.7096 208.8 78.2096 208.9L199.91 211.6C201.31 211.7 202.21 213 201.71 214.3L151.61 357.2C149.61 362.4 151.51 368 157.11 368H180.81C186.31 368 191.41 365.2 194.31 360.6L291.71 215C292.11 214.4 292.71 214.1 293.41 214.1L358.31 215.8C361.61 216 372.91 216.1 376.31 216.1C420.61 216.1 448.61 201.8 448.61 184.1C448.61 166.4 420.71 152 376.31 152Z" class="color000000 svgShape"></path>
</svg>
